# xmcd
# Track frame offsets:
# 150
# 27270
# 49599
# 67603
# 87822
# 108194
# 131370
# 155782
# 172295
# 189568
# 208134
# 229065
# 251859
# 261132
# 280670
# 303154
# 309830
#
# Disc length: 4456 seconds
# Revision: 0
# Processed by: cddbd v1.4PL0 Copyright (c) Steve Scherf et al.
# Submitted via: VisiTrax 2.9.1.155 - For more info visit www.synapsa.com
#
DISCID=e2116611
DTITLE=Ligabue - Acustico
DYEAR=1900
DGENRE=
TTITLE0=Artistico
TTITLE1=Artistico
TTITLE2=Artistico
TTITLE3=Artistico
TTITLE4=Artistico
TTITLE5=Artistico
TTITLE6=Artistico
TTITLE7=Artistico
TTITLE8=Artistico
TTITLE9=Artistico
TTITLE10=Artistico
TTITLE11=Artistico
TTITLE12=Artistico
TTITLE13=Artistico
TTITLE14=Artistico
TTITLE15=Artistico
TTITLE16=Artistico
EXTD=
EXTT0=
EXTT1=
EXTT2=
EXTT3=
EXTT4=
EXTT5=
EXTT6=
EXTT7=
EXTT8=
EXTT9=
EXTT10=
EXTT11=
EXTT12=
EXTT13=
EXTT14=
EXTT15=
EXTT16=
PLAYORDER=
